<svg xmlns="http://www.w3.org/2000/svg" width="48" height="48" fill="none"><path fill="#4E6575" d="M36.444 9.181a.94.94 0 1 0-.37-1.843.94.94 0 0 0 .37 1.843Z"/><path fill="#4E6575" d="M46.523 11.87 40.4 9.147a.94.94 0 0 0-.763 1.717l6.124 2.723a.59.59 0 0 1 .361.556.59.59 0 0 1-.36.555L25.536 23.69a.608.608 0 0 1-.495 0L4.82 14.698a.59.59 0 0 1-.361-.556.59.59 0 0 1 .36-.555l20.224-8.992a.607.607 0 0 1 .495 0l6.427 2.858a.94.94 0 1 0 .763-1.717L26.3 2.878a2.49 2.49 0 0 0-2.02 0L4.055 11.87a2.458 2.458 0 0 0-1.477 2.273v15.546A3.293 3.293 0 0 0 0 32.9v5.096a2.351 2.351 0 0 0 2.348 2.349h2.34a2.351 2.351 0 0 0 2.349-2.349V32.9a3.293 3.293 0 0 0-2.58-3.21V16.594l4.444 1.975v9.574c0 1.333.802 2.51 2.043 2.997l13.301 5.226a3.221 3.221 0 0 0 2.355 0l3.96-1.556 1.655 6.178c.19.71.726 1.246 1.435 1.435a2.01 2.01 0 0 0 1.96-.525.148.148 0 0 1 .106-.044c.029 0 .07.008.107.044l2.848 2.848a2.038 2.038 0 0 0 1.494.593 2.038 2.038 0 0 0 1.458-.68l2.953-3.323a2.032 2.032 0 0 0-.083-2.783l-2.662-2.663a.148.148 0 0 1-.044-.106c0-.029.007-.07.044-.107a2.009 2.009 0 0 0 .525-1.96 2.009 2.009 0 0 0-1.435-1.435l-2.335-.626 1.125-.442a3.201 3.201 0 0 0 2.042-2.997v-9.681l4.77-2.121A2.457 2.457 0 0 0 48 14.143c0-.997-.566-1.868-1.477-2.273ZM5.158 32.9v5.095a.47.47 0 0 1-.47.47h-2.34a.47.47 0 0 1-.47-.47V32.9a1.41 1.41 0 0 1 1.41-1.409h.461c.777 0 1.41.633 1.41 1.41Zm35.383 1.303c.023.084-.023.13-.038.146a2.016 2.016 0 0 0-.595 1.435c0 .542.211 1.051.594 1.434l2.663 2.663a.15.15 0 0 1 .006.207l-2.953 3.323a.151.151 0 0 1-.22.006l-2.847-2.848a2.016 2.016 0 0 0-1.435-.594c-.542 0-1.051.211-1.435.594-.015.016-.061.062-.145.04a.14.14 0 0 1-.107-.107l-2.277-8.498c-.005-.02-.022-.084.04-.146.06-.061.124-.044.145-.039l8.498 2.277c.02.006.084.023.106.107Zm-.666-5.986c0 .556-.334 1.046-.85 1.249l-3.493 1.372-3.109-.833a2.008 2.008 0 0 0-1.96.525 2.009 2.009 0 0 0-.525 1.96l.132.494-4.157 1.633a1.342 1.342 0 0 1-.982 0l-13.3-5.225a1.334 1.334 0 0 1-.851-1.249v-8.738l13.5 6.002a2.486 2.486 0 0 0 2.02 0l13.575-6.036v8.846Z"/><path fill="#EFF2F3" stroke="#EFF2F3" d="M9 14.5 25 7l16 7.5L24 21 9 14.5Z"/></svg>