<svg width="16" height="16" viewBox="0 0 16 16" fill="none" xmlns="http://www.w3.org/2000/svg">
<path d="M8.00017 1.33301C6.68162 1.33301 5.39269 1.724 4.29636 2.45654C3.20004 3.18909 2.34555 4.23028 1.84097 5.44845C1.33638 6.66663 1.20436 8.00707 1.4616 9.30028C1.71883 10.5935 2.35377 11.7814 3.28612 12.7137C4.21847 13.6461 5.40636 14.281 6.69956 14.5382C7.99277 14.7955 9.33322 14.6635 10.5514 14.1589C11.7696 13.6543 12.8108 12.7998 13.5433 11.7035C14.2758 10.6071 14.6668 9.31822 14.6668 7.99967C14.6668 7.1242 14.4944 6.25729 14.1594 5.44845C13.8243 4.63961 13.3333 3.90469 12.7142 3.28563C12.0952 2.66657 11.3602 2.17551 10.5514 1.84048C9.74255 1.50545 8.87565 1.33301 8.00017 1.33301V1.33301ZM7.3335 10.6663H6.00017V5.33301H7.3335V10.6663ZM10.0002 10.6663H8.66683V5.33301H10.0002V10.6663Z" fill="white"/>
</svg>
