<svg xmlns="http://www.w3.org/2000/svg" width="49" height="48" fill="none"><g clip-path="url(#a)"><path fill="#607987" fill-opacity=".1" d="M24.018 41.466c9.682 0 17.53-7.745 17.53-17.297 0-9.553-7.848-17.297-17.53-17.297-9.683 0-17.532 7.744-17.532 17.297 0 9.552 7.85 17.296 17.532 17.296v.001Z"/><path fill="#4E6575" d="m33.377 21.224-5.896-.846-2.637-5.27a.923.923 0 0 0-.827-.508.923.923 0 0 0-.827.507l-2.637 5.271-5.895.846c-.756.108-1.058 1.026-.512 1.552l4.266 4.103-1.007 5.793c-.129.743.662 1.311 1.34.96l5.272-2.735 5.273 2.735c.673.35 1.47-.215 1.339-.96l-1.007-5.793 4.266-4.103c.547-.525.245-1.443-.511-1.552Zm-5.391 4.685a.903.903 0 0 0-.265.806l.773 4.448-4.047-2.1a.934.934 0 0 0-.86 0l-4.047 2.1.774-4.448a.902.902 0 0 0-.267-.806l-3.274-3.15 4.525-.648a.922.922 0 0 0 .696-.497l2.023-4.046 2.023 4.046a.92.92 0 0 0 .696.497l4.526.65-3.276 3.148Z"/><path fill="#4E6575" d="M47.545 24.17c0-.81-.38-1.502-.717-2.114-.562-1.022-.583-1.113-.323-2.296.149-.67.316-1.433.094-2.19-.382-1.295-1.712-2-2.048-2.732-.343-.748-.01-2.207-.737-3.332-.73-1.13-2.21-1.438-2.739-2.047-.533-.611-.63-2.112-1.646-2.99-1.018-.88-2.522-.76-3.207-1.2-.681-.437-1.193-1.85-2.425-2.41-.728-.333-1.514-.276-2.207-.226-1.195.086-1.277.06-2.22-.644-.561-.419-1.196-.894-2.004-1.01-.787-.11-1.52.163-2.166.405-1.13.421-1.234.421-2.365 0-.646-.242-1.38-.515-2.167-.403-.807.114-1.443.59-2.003 1.009-.942.703-1.025.73-2.22.643-.694-.05-1.48-.107-2.208.225-.734.335-1.207.966-1.624 1.524-.71.95-.785.998-1.95 1.25-.68.147-1.451.313-2.057.837-.607.523-.881 1.258-1.123 1.907-.416 1.116-.477 1.186-1.521 1.75-.612.331-1.307.706-1.742 1.38-.727 1.124-.394 2.586-.737 3.33-.336.733-1.667 1.442-2.047 2.734-.375 1.273.358 2.588.241 3.403-.112.784-1.188 1.847-1.188 3.196 0 1.351 1.075 2.41 1.188 3.196.118.823-.617 2.126-.242 3.402.382 1.296 1.712 2.001 2.048 2.733.343.748.01 2.207.737 3.332.73 1.13 2.21 1.438 2.739 2.047.533.611.63 2.112 1.646 2.99 1.018.88 2.522.76 3.207 1.2.682.437 1.193 1.85 2.425 2.41 1.222.557 2.635.022 3.42.251.768.225 1.663 1.436 3.011 1.627.762.108 1.462-.14 2.167-.403 1.13-.421 1.233-.421 2.364 0 .646.242 1.38.515 2.167.403 1.348-.19 2.248-1.404 3.013-1.627.787-.23 2.193.308 3.419-.25 1.233-.563 1.743-1.974 2.424-2.41.683-.44 2.19-.323 3.206-1.2 1.017-.879 1.115-2.38 1.646-2.992.532-.61 2.01-.916 2.74-2.046.727-1.124.395-2.587.737-3.331.336-.732 1.667-1.44 2.047-2.733.375-1.274-.357-2.588-.24-3.403.11-.784 1.187-1.847 1.187-3.195ZM44.53 27.11c-.171 1.203.492 2.49.298 3.149-.2.681-1.45 1.385-1.957 2.49-.512 1.114-.23 2.514-.611 3.103-.383.59-1.78.917-2.584 1.839-.804.923-.93 2.347-1.462 2.807-.525.454-1.964.382-2.997 1.043-1.025.659-1.553 1.994-2.193 2.285-.629.286-1.982-.19-3.168.157-1.16.34-2.053 1.472-2.753 1.572-.668.096-1.848-.742-3.085-.742-1.247 0-2.41.839-3.086.742-.335-.048-.732-.345-1.152-.658-.93-.696-1.497-1.048-2.66-1.048-.817 0-1.667.178-2.108-.023-.64-.292-1.164-1.625-2.194-2.285-1.032-.662-2.47-.587-2.996-1.043-.535-.461-.656-1.88-1.462-2.807-.803-.923-2.2-1.247-2.583-1.839-.38-.586-.101-1.992-.612-3.103-.507-1.105-1.756-1.808-1.957-2.49-.194-.662.47-1.937.297-3.15-.17-1.197-1.17-2.218-1.17-2.94 0-.725 1-1.744 1.17-2.942.172-1.204-.49-2.491-.297-3.15.201-.681 1.45-1.385 1.957-2.49.513-1.114.23-2.513.612-3.103.382-.59 1.78-.916 2.583-1.839.804-.924.93-2.347 1.462-2.807.525-.454 1.964-.381 2.997-1.044 1.026-.658 1.553-1.992 2.193-2.284.625-.284 1.987.188 3.168-.157 1.161-.339 2.053-1.472 2.753-1.571.672-.096 1.846.74 3.086.74 1.244 0 2.41-.837 3.085-.74.708.1 1.575 1.227 2.753 1.571 1.175.343 2.543-.127 3.168.157.64.292 1.164 1.625 2.192 2.284 1.033.663 2.47.59 2.998 1.044.534.461.654 1.88 1.461 2.807.804.924 2.202 1.247 2.584 1.839.379.586.1 1.992.61 3.103.508 1.105 1.756 1.809 1.958 2.49.194.662-.47 1.937-.297 3.15.17 1.197 1.17 2.217 1.17 2.941 0 .723-1 1.743-1.17 2.942Z"/></g><defs><clipPath id="a"><path fill="#fff" d="M.38 0h48v48h-48z"/></clipPath></defs></svg>