<svg xmlns="http://www.w3.org/2000/svg" width="48" height="48" fill="none"><path fill="#4E6575" d="M42.923 2.309H5.077C2.277 2.309 0 4.619 0 7.458v24.34c0 2.84 2.277 5.149 5.077 5.149h12.259l-1.477 7.49h-4.782a.93.93 0 0 0-.923.935.93.93 0 0 0 .923.937h25.846a.93.93 0 0 0 .923-.937.93.93 0 0 0-.923-.936h-4.782l-1.477-7.49h12.26c2.798 0 5.076-2.309 5.076-5.148V7.458c0-2.84-2.278-5.15-5.077-5.15ZM17.741 44.436l1.477-7.49h9.564l1.477 7.49H17.74Zm28.413-12.638c0 1.807-1.45 3.277-3.23 3.277H5.076c-1.781 0-3.23-1.47-3.23-3.277v-2.34h44.307v2.34Zm0-4.213H1.846v-1.872h5.539a.93.93 0 0 0 .923-.936.93.93 0 0 0-.923-.936H1.846V7.458c0-1.807 1.45-3.277 3.23-3.277h37.847c1.782 0 3.23 1.47 3.23 3.277v20.127Z"/><path fill="#EFF2F3" d="M43 6.055H5v15.212h38V6.055Z"/><path fill="#4E6575" d="M24 30a1.848 1.848 0 0 0-1.846 1.846c0 1.018.828 1.846 1.846 1.846a1.848 1.848 0 0 0 1.846-1.846A1.848 1.848 0 0 0 24 30ZM31.558 19.987l-1.959-1.958 1.632-1.632a.923.923 0 0 0-.445-1.552l-8.485-1.958a.924.924 0 0 0-1.107 1.107l1.958 8.485a.923.923 0 0 0 1.552.445l1.632-1.631 1.958 1.958a.92.92 0 0 0 1.305 0l1.959-1.958a.923.923 0 0 0 0-1.306Zm-2.611 1.306-1.959-1.959a.92.92 0 0 0-1.305 0l-1.107 1.107-1.251-5.423 5.423 1.251-1.107 1.107a.923.923 0 0 0 0 1.306L29.6 20.64l-.652.653ZM20.2 10.588l-.922-.923a.923.923 0 0 0-1.306 1.305l.923.923a.92.92 0 0 0 1.306 0 .923.923 0 0 0 0-1.305ZM18.4 13.086h-1.305a.923.923 0 0 0 0 1.846h1.306a.923.923 0 0 0 0-1.846ZM20.2 16.126a.923.923 0 0 0-1.305 0l-.923.923a.923.923 0 0 0 1.305 1.305l.923-.923a.923.923 0 0 0 0-1.305ZM26.662 9.665a.923.923 0 0 0-1.305 0l-.924.923a.923.923 0 0 0 1.306 1.305l.923-.923a.923.923 0 0 0 0-1.305ZM22.317 7.863a.923.923 0 0 0-.923.923v1.306a.923.923 0 0 0 1.846 0V8.786a.923.923 0 0 0-.923-.923ZM11.059 24.282a.89.89 0 0 0-.138-.333.876.876 0 0 0-.255-.254.91.91 0 0 0-.332-.138.909.909 0 0 0-.692.138.878.878 0 0 0-.255.254.94.94 0 0 0-.156.513.908.908 0 0 0 .071.352.902.902 0 0 0 .34.415.91.91 0 0 0 .332.138.908.908 0 0 0 .533-.053.897.897 0 0 0 .414-.34.91.91 0 0 0 .138-.332.908.908 0 0 0 0-.36Z"/></svg>