<svg xmlns="http://www.w3.org/2000/svg" width="49" height="48" fill="none"><g clip-path="url(#a)"><mask id="b" width="48" height="48" x="0" y="0" maskUnits="userSpaceOnUse" style="mask-type:luminance"><path fill="#fff" d="M.489.72h47.057v46.429H.49V.72Z"/></mask><g mask="url(#b)"><path fill="#607987" fill-opacity=".1" d="M33.183 17.484a11.79 11.79 0 0 1 2.339 7.055c0 6.6-5.449 11.968-12.145 11.968-6.697 0-12.145-5.369-12.145-11.968 0-6.6 5.448-11.97 12.145-11.97 2.704 0 5.204.875 7.224 2.353l3.499-3.448a17.131 17.131 0 0 0-10.723-3.745c-9.405 0-17.058 7.54-17.058 16.81 0 9.269 7.653 16.81 17.058 16.81 9.405 0 17.057-7.541 17.057-16.81 0-3.972-1.405-7.626-3.75-10.506l-3.501 3.45Z"/><path fill="#607987" fill-opacity=".1" d="M23.773 24.204a16.158 16.158 0 0 1 3.32-5.78 7.27 7.27 0 0 0-3.716-1.014c-3.989 0-7.233 3.198-7.233 7.129 0 3.93 3.244 7.128 7.233 7.128 3.989 0 7.233-3.197 7.233-7.128a7.007 7.007 0 0 0-.988-3.595 16.523 16.523 0 0 1-5.848 3.26h-.001Z"/><path fill="#4E6575" d="M47.277 9.568a.898.898 0 0 0-.078-1.352.917.917 0 0 0-.469-.191l-3.715-.417L40.61 5.24l-.422-3.662a.91.91 0 0 0-.61-.753.928.928 0 0 0-.954.214L34.99 4.623c-.1.1-.196.203-.284.311a23.107 23.107 0 0 0-11.328-2.952c-6.113 0-11.861 2.346-16.184 6.606S.49 18.513.49 24.538c0 6.025 2.38 11.69 6.704 15.951 4.323 4.26 10.07 6.607 16.184 6.607 6.113 0 11.86-2.346 16.184-6.606 4.323-4.262 6.704-9.926 6.704-15.951 0-3.904-1.02-7.722-2.955-11.095a4.05 4.05 0 0 0 .33-.293l3.637-3.583Zm-4.935 2.3a2.175 2.175 0 0 1-1.78.612l-.9-.1 3.027-2.983 1.94.218-2.287 2.253ZM29.754 19.58a15.607 15.607 0 0 1-4.351 3.017 15.38 15.38 0 0 1 3.06-4.287L39.868 7.07l1.29 1.272L29.753 19.58Zm-6.785 4.136-.006.005-.98.967a.898.898 0 0 0-.001 1.282c.173.17.407.266.65.265.235 0 .47-.088.65-.264l.98-.967.006-.006a17.497 17.497 0 0 0 6.786-4.134l1.985-1.956a10.85 10.85 0 0 1 1.565 5.63c0 6.1-5.035 11.063-11.226 11.063-6.191 0-11.226-4.962-11.226-11.062s5.035-11.063 11.226-11.063c2.059 0 4.04.545 5.783 1.584l-1.996 1.967a17.162 17.162 0 0 0-4.196 6.689ZM38.577 3.65l.22 1.912-3.026 2.984-.103-.889a2.105 2.105 0 0 1 .62-1.751l2.29-2.256Zm5.85 20.889c0 11.438-9.444 20.743-21.05 20.743-11.607 0-21.05-9.305-21.05-20.743 0-11.439 9.444-20.744 21.05-20.744 3.713 0 7.339.959 10.529 2.777a3.947 3.947 0 0 0-.065 1.29l.268 2.32-3.614 3.563a13.085 13.085 0 0 0-7.118-2.083c-7.204 0-13.065 5.777-13.065 12.877 0 7.1 5.861 12.875 13.065 12.875S36.442 31.64 36.442 24.54c0-2.483-.714-4.873-2.07-6.948L38 14.02l2.356.264c.43.047.865.027 1.288-.06a20.473 20.473 0 0 1 2.783 10.316Z"/></g></g><defs><clipPath id="a"><path fill="#fff" d="M.38 0h48v48h-48z"/></clipPath></defs></svg>